#!OML:ASF X:\für Bonn\!DataBase\2005_08_10_Bjorn_Final\c3d\bjorn.ASF
:FULLY-SPECIFIED
:DEGREES
79
root -1.90473 16.3106 17.5416 -356.988 -197.59 -13.9136
lowerback 45.864 -11.839 7.55686
upperback 24.1873 -0.307828 3.11979
thorax 7.16275 4.09798 0.464214
lowerneck 9.48913 -9.94632 7.73164
upperneck -13.8584 -11.8044 5.47038
head -5.90262 -6.60347 1.45353
rclavicle -1.27222e-014 -6.39838e-016
rhumerus -163.394 -160.252 119.952
rradius 23.2485
rwrist 8.05796
rhand -10.9723 11.7213
rfingers 7.12502
rthumb 15.0472 -17.7118
lclavicle -1.27222e-014 -6.39838e-016
lhumerus -375.127 -21.1025 -285.739
lradius 89.5433
lwrist -11.911
lhand -30.8193 -14.9807
lfingers 7.12502
lthumb -4.10863 14.9594
rfemur -56.5487 -7.66377 -4.0178
rtibia 72.4337
rfoot -19.0067 15.3731
rtoes -14.053
lfemur -52.3063 12.3856 -37.5167
ltibia 73.1345
lfoot -26.7235 18.7452
ltoes -11.9284
80
root -1.91614 16.1972 17.5555 -357.005 -197.847 -14.0971
lowerback 46.1226 -12.0242 7.85451
upperback 24.0824 -0.379633 3.30803
thorax 7.0123 4.05505 0.553183
lowerneck 9.3118 -10.0174 7.77044
upperneck -13.8028 -11.9365 5.37852
head -5.86398 -6.66108 1.41894
rclavicle 2.8625e-014 4.01794e-014
rhumerus -162.965 -159.589 120.343
rradius 22.9568
rwrist 7.9493
rhand -10.8618 11.7863
rfingers 7.12502
rthumb 15.1536 -17.6389
lclavicle 2.8625e-014 4.01794e-014
lhumerus -375.496 -20.9488 -286.292
lradius 90.1804
lwrist -11.9162
lhand -30.8438 -15.4177
lfingers 7.12502
lthumb -4.1323 14.522
rfemur -57.5562 -7.76643 -4.21113
rtibia 73.6396
rfoot -19.2435 15.6301
rtoes -14.4935
lfemur -53.2431 12.4407 -37.7901
ltibia 74.4297
lfoot -27.1034 18.8437
ltoes -11.8427
81
root -1.92599 16.0831 17.5686 -357.009 -198.116 -14.2616
lowerback 46.3674 -12.1911 8.12224
upperback 23.9911 -0.436289 3.51406
thorax 6.88127 4.01486 0.672336
lowerneck 9.10684 -10.0762 7.84375
upperneck -13.7982 -12.0571 5.21485
head -5.84378 -6.70994 1.35706
rclavicle 6.36111e-014 2.23633e-014
rhumerus -162.504 -158.935 120.719
rradius 22.6527
rwrist 7.79486
rhand -10.8127 11.885
rfingers 7.12502
rthumb 15.2009 -17.5366
lclavicle 6.36111e-014 2.23633e-014
lhumerus -375.921 -20.7246 -286.836
lradius 90.8132
lwrist -11.943
lhand -30.7799 -15.7598
lfingers 7.12502
lthumb -4.07059 14.1811
rfemur -58.5787 -7.85361 -4.38238
rtibia 74.8447
rfoot -19.5161 15.8889
rtoes -14.9433
lfemur -54.1814 12.5118 -38.0352
ltibia 75.712
lfoot -27.5281 18.9207
ltoes -11.7906
82
root -1.93576 15.968 17.581 -357.004 -198.365 -14.4098
lowerback 46.5579 -12.3723 8.41757
upperback 23.9136 -0.503265 3.70171
thorax 6.77621 3.97634 0.76456
lowerneck 8.92928 -10.1328 7.95755
upperneck -13.8294 -12.1606 5.07667
head -5.84106 -6.75589 1.29901
rclavicle 2.38542e-013 8.31914e-014
rhumerus -162.195 -158.402 121.12
rradius 22.5457
rwrist 7.52547
rhand -10.7984 12.0108
rfingers 7.12502
rthumb 15.2147 -17.4097
lclavicle 2.38542e-013 8.31914e-014
lhumerus -376.413 -20.5516 -287.482
lradius 91.4853
lwrist -11.9359
lhand -30.7223 -15.9253
lfingers 7.12502
lthumb -4.01497 14.0166
rfemur -59.5963 -7.98292 -4.5253
rtibia 76.0315
rfoot -19.7579 16.1411
rtoes -15.3127
lfemur -55.1366 12.5701 -38.2736
ltibia 76.9899
lfoot -27.8737 19.0697
ltoes -11.7779
83
root -1.94567 15.8532 17.5928 -357.013 -198.611 -14.5529
lowerback 46.7325 -12.5487 8.70985
upperback 23.8408 -0.564002 3.89129
thorax 6.68042 3.94113 0.85983
lowerneck 8.66849 -10.2038 8.08192
upperneck -13.7712 -12.3027 4.88496
head -5.80056 -6.81435 1.21801
rclavicle -1.90833e-014 -6.95746e-014
rhumerus -161.949 -157.908 121.547
rradius 22.5198
rwrist 7.13101
rhand -10.7132 12.0944
rfingers 7.12502
rthumb 15.2967 -17.32
lclavicle -1.90833e-014 -6.95746e-014
lhumerus -376.942 -20.3844 -288.15
lradius 92.1346
lwrist -11.8626
lhand -30.5826 -16.1117
lfingers 7.12502
lthumb -3.8801 13.8327
rfemur -60.5869 -8.12861 -4.65219
rtibia 77.2061
rfoot -19.9976 16.4067
rtoes -15.7717
lfemur -56.0629 12.6659 -38.5059
ltibia 78.2557
lfoot -28.2623 19.1777
ltoes -11.7254
84
root -1.95436 15.7381 17.6047 -356.986 -198.866 -14.6828
lowerback 46.8515 -12.7013 9.00013
upperback 23.7775 -0.610186 4.07968
thorax 6.6045 3.91143 0.95039
lowerneck 8.4331 -10.2802 8.2817
upperneck -13.7635 -12.4426 4.65805
head -5.7884 -6.87445 1.11944
rclavicle -7.63333e-014 1.99779e-014
rhumerus -161.668 -157.307 121.879
rradius 22.4569
rwrist 6.73853
rhand -10.6226 12.2363
rfingers 7.12502
rthumb 15.384 -17.1713
lclavicle -7.63333e-014 1.99779e-014
lhumerus -377.469 -20.2718 -288.927
lradius 92.7974
lwrist -11.7091
lhand -30.4168 -16.1583
lfingers 7.12502
lthumb -3.71993 13.789
rfemur -61.6332 -8.30135 -4.75022
rtibia 78.3733
rfoot -20.2209 16.6732
rtoes -16.1938
lfemur -57.0286 12.7553 -38.7349
ltibia 79.5058
lfoot -28.5614 19.3794
ltoes -11.9113
85
root -1.96319 15.623 17.616 -356.967 -199.115 -14.7664
lowerback 46.9873 -12.864 9.34304
upperback 23.6936 -0.643381 4.26825
thorax 6.50598 3.8924 1.01467
lowerneck 8.23169 -10.3857 8.51489
upperneck -13.7593 -12.6195 4.40483
head -5.78827 -6.9527 1.01385
rclavicle 9.54166e-015 8.74653e-014
rhumerus -161.445 -156.589 122.174
rradius 22.4182
rwrist 6.42991
rhand -10.4524 12.4219
rfingers 7.12502
rthumb 15.548 -16.973
lclavicle 9.54166e-015 8.74653e-014
lhumerus -378.06 -20.2282 -289.712
lradius 93.4731
lwrist -11.5189
lhand -30.2237 -16.1469
lfingers 7.12502
lthumb -3.53353 13.8036
rfemur -62.6334 -8.47221 -4.7987
rtibia 79.5207
rfoot -20.4226 16.9844
rtoes -16.4713
lfemur -57.9756 12.8802 -38.9121
ltibia 80.7544
lfoot -28.9426 19.4959
ltoes -11.801
86
root -1.9706 15.5079 17.6265 -356.936 -199.351 -14.8555
lowerback 47.1059 -13.0046 9.67133
upperback 23.5855 -0.670125 4.46881
thorax 6.38245 3.86803 1.09399
lowerneck 8.16285 -10.4922 8.72377
upperneck -13.8464 -12.7801 4.18463
head -5.83614 -7.02709 0.932074
rclavicle -2.63986e-013 -2.42517e-014
rhumerus -161.312 -155.883 122.462
rradius 22.4451
rwrist 6.02217
rhand -10.2564 12.5344
rfingers 7.12502
rthumb 15.7368 -16.8458
lclavicle -2.63986e-013 -2.42517e-014
lhumerus -378.707 -20.2343 -290.497
lradius 94.121
lwrist -11.2273
lhand -30.0136 -16.1272
lfingers 7.12502
lthumb -3.33064 13.8265
rfemur -63.6571 -8.6738 -4.8318
rtibia 80.6657
rfoot -20.6754 17.2398
rtoes -16.9912
lfemur -58.9254 12.9863 -39.101
ltibia 81.9896
lfoot -29.2838 19.677
ltoes -11.7994
87
root -1.97842 15.3918 17.6371 -356.927 -199.585 -14.9549
lowerback 47.2175 -13.1471 10.0136
upperback 23.488 -0.687016 4.64528
thorax 6.27388 3.85551 1.14075
lowerneck 8.06534 -10.6267 9.02356
upperneck -13.9366 -12.9769 3.92991
head -5.89053 -7.12114 0.82943
rclavicle 9.22361e-014 5.94366e-014
rhumerus -161.154 -155 122.642
rradius 22.4515
rwrist 5.72916
rhand -9.98511 12.635
rfingers 7.12502
rthumb 15.998 -16.7244
lclavicle 9.22361e-014 5.94366e-014
lhumerus -379.325 -20.286 -291.327
lradius 94.7398
lwrist -11.0066
lhand -29.8703 -16.0555
lfingers 7.12502
lthumb -3.19225 13.9004
rfemur -64.6505 -8.89684 -4.87693
rtibia 81.7942
rfoot -20.8647 17.5507
rtoes -17.3191
lfemur -59.8566 13.0899 -39.29
ltibia 83.216
lfoot -29.6524 19.8263
ltoes -11.7977
88
root -1.98501 15.2762 17.6475 -356.907 -199.809 -15.0194
lowerback 47.3544 -13.2766 10.3493
upperback 23.3526 -0.694634 4.8484
thorax 6.11942 3.83746 1.21429
lowerneck 8.0255 -10.7447 9.24168
upperneck -13.9921 -13.1501 3.71817
head -5.93518 -7.20214 0.751279
rclavicle -3.18055e-014 6.04305e-014
rhumerus -161.074 -154.106 122.82
rradius 22.4869
rwrist 5.44442
rhand -9.70921 12.6867
rfingers 7.12502
rthumb 16.2637 -16.6512
lclavicle -3.18055e-014 6.04305e-014
lhumerus -380.016 -20.3972 -292.115
lradius 95.3465
lwrist -10.6579
lhand -29.8218 -15.9954
lfingers 7.12502
lthumb -3.14534 13.9611
rfemur -65.6483 -9.12767 -4.87286
rtibia 82.9177
rfoot -21.0518 17.8556
rtoes -17.6742
lfemur -60.7814 13.1959 -39.4384
ltibia 84.4314
lfoot -29.9867 19.9987
ltoes -11.7576
89
root -1.99074 15.1596 17.6573 -356.913 -200.033 -15.0828
lowerback 47.5208 -13.4012 10.7035
upperback 23.2 -0.683066 5.02296
thorax 5.9439 3.83277 1.24412
lowerneck 7.92584 -10.8622 9.48394
upperneck -13.9836 -13.3196 3.56594
head -5.9479 -7.28614 0.681678
rclavicle -1.01778e-013 -1.94014e-013
rhumerus -161.051 -153.115 122.929
rradius 22.5301
rwrist 5.15403
rhand -9.43276 12.6261
rfingers 7.12502
rthumb 16.5298 -16.6898
lclavicle -1.01778e-013 -1.94014e-013
lhumerus -380.62 -20.6035 -292.973
lradius 95.8553
lwrist -10.2759
lhand -29.815 -15.9087
lfingers 7.12502
lthumb -3.13878 14.048
rfemur -66.6189 -9.36715 -4.85618
rtibia 84.0351
rfoot -21.2695 18.1455
rtoes -18.1764
lfemur -61.6804 13.3222 -39.5889
ltibia 85.6368
lfoot -30.2922 20.2421
ltoes -11.9824
90
root -1.99505 15.0443 17.667 -356.927 -200.229 -15.139
lowerback 47.6783 -13.5232 10.9964
upperback 23.0771 -0.674599 5.24736
thorax 5.802 3.81995 1.35847
lowerneck 7.77762 -10.9372 9.48755
upperneck -13.9311 -13.4496 3.54951
head -5.91094 -7.34795 0.676675
rclavicle -1.74931e-013 7.93151e-014
rhumerus -161.006 -152.205 123.096
rradius 22.6243
rwrist 4.75697
rhand -9.15047 12.4372
rfingers 7.12502
rthumb 16.8016 -16.8558
lclavicle -1.74931e-013 7.93151e-014
lhumerus -381.191 -20.803 -293.762
lradius 96.3344
lwrist -9.8312
lhand -29.8666 -15.7632
lfingers 7.12502
lthumb -3.18868 14.1927
rfemur -67.5624 -9.64593 -4.81885
rtibia 85.1362
rfoot -21.4477 18.4779
rtoes -18.5215
lfemur -62.5448 13.4218 -39.7106
ltibia 86.8306
lfoot -30.6205 20.4351
ltoes -12.1697
